<?xml version="1.0" encoding="UTF-8"?>
<svg width="48px" height="48px" viewBox="0 0 48 48" version="1.1" xmlns="http://www.w3.org/2000/svg" xmlns:xlink="http://www.w3.org/1999/xlink">
    <title>Tab1/icon</title>
    <g id="页面-1" stroke="none" stroke-width="1" fill="none" fill-rule="evenodd">
        <g id="首页" transform="translate(-164.000000, -1468.000000)" fill-rule="nonzero">
            <g id="数量：-2" transform="translate(0.000000, 1460.000000)">
                <g id="tab1：支付宝" transform="translate(148.000000, 8.000000)">
                    <g id="Tab1/icon" transform="translate(16.000000, 0.000000)">
                        <g id="账号管理" transform="translate(3.000000, 3.000000)">
                            <rect id="矩形" fill="#000000" opacity="0" x="0" y="0" width="42" height="42"></rect>
                            <path d="M22.4108435,22.5883382 C25.0227661,21 26.7635242,18.1766764 26.7635242,15.0000407 C26.7635242,10.0583496 22.7589709,6 17.8848645,6 C13.0091064,6 8.6563855,10.0583496 8.6563855,15 C8.6563855,18.1766764 10.3971838,21 13.0091064,22.5883382 C8.30825806,24.3533529 5,28.9416911 5,34.4116618 C5,35.293335 5.69629517,36 6.5675,36 C7.43870483,36 8.135,35.293335 8.135,34.4116618 C8.135,29.1183268 12.4877209,24.706665 17.7099548,24.706665 C23.1070984,24.706665 27.2865613,29.1183268 27.2865613,34.4116618 C27.2865613,35.293335 27.9828564,36 28.8540613,36 C29.7252661,36 30.4215613,35.293335 30.4215613,34.4116618 C30.41995,29.1183268 27.1116516,24.5299886 22.4108435,22.5883382 Z M17.7099548,21 C14.4016968,21 11.7897742,18.3533529 11.7897742,15 C11.7897742,11.6466471 14.4017371,9 17.7099548,9 C21.0182129,9 23.6301758,11.6466878 23.6301758,15 C23.6301758,18.3533122 21.0182129,21 17.7099548,21 Z M36.7014709,12.3083496 L32.4890161,12.3083496 C31.77125,12.3083496 31.1904468,11.7199707 31.1904468,10.9966634 L31.1904468,10.9816895 C31.1904468,10.2566732 31.7729419,9.67000326 32.4890161,9.67000326 L36.7014307,9.67000326 C37.4191968,9.67000326 38,10.2583415 38,10.9816895 L38,10.9966634 C38,11.7200114 37.4175452,12.3083496 36.7014709,12.3083496 Z M36.7014709,17.5383301 L29.7978564,17.5383301 C29.0801306,17.5383301 28.4993274,16.9499919 28.4993274,16.2266846 L28.4993274,16.2116699 C28.4993274,15.4866536 29.0817822,14.9000244 29.7978564,14.9000244 L36.7014709,14.9000244 C37.4191968,14.9000244 38,15.4883219 38,16.2116699 L38,16.2266846 C38,16.9499919 37.4175452,17.5383301 36.7014709,17.5383301 L36.7014709,17.5383301 Z M36.7014709,22.7683512 L30.6393726,22.7683512 C29.9216064,22.7683512 29.3408032,22.1799723 29.3408032,21.456665 L29.3408032,21.4416911 C29.3408032,20.7166748 29.9232983,20.1300049 30.6393726,20.1300049 L36.7014709,20.1300049 C37.4191968,20.1300049 38,20.7183431 38,21.4416911 L38,21.456665 C38,22.180013 37.4175452,22.7683512 36.7014709,22.7683512 Z" id="形状" fill="#666666"></path>
                        </g>
                    </g>
                </g>
            </g>
        </g>
    </g>
</svg>